# xmcd CD database file
#
# Track frame offsets:
#	187
#	31815
#	50622
#
# Disc length: 897 seconds
#
# Revision: 0
# Processed by: cddbd v1.5.1PL0 Copyright (c) Steve Scherf et al.
# Submitted via: CDex 1.51
#
DISCID=1d037f03
DTITLE=HELLOWEEN - The Time Of The Oath (EP)
DYEAR=1996
DGENRE=Misc
TTITLE0=The Time Of The Oath
TTITLE1=Electric Eye
TTITLE2=Magnetic Fields
EXTD=YEAR: 1996
EXTT0=
EXTT1=
EXTT2=
PLAYORDER=
